<svg xmlns="http://www.w3.org/2000/svg" xmlns:xlink="http://www.w3.org/1999/xlink" width="200" height="54" viewBox="0 0 200 54" role="img" aria-label="GitHub">
  <title>GitHub</title>
  <style>
  svg{--bg1:#eef1f7;--bg2:#dde4ef;--ink:#1f2630;--mut:#5b6473;--accent:#2f5fe6;--stroke:rgba(20,26,48,.12);--frost:rgba(255,255,255,.60);--glow:#3f74ff;--auroraO:.46;--chip:#ffffff;--chipBd:rgba(20,26,48,.14)}@media (prefers-color-scheme:dark){svg{--bg1:#080b16;--bg2:#10162c;--ink:#f3f6fc;--mut:#aab3c5;--accent:#5ce1ff;--stroke:rgba(255,255,255,.12);--frost:rgba(8,11,22,.42);--glow:#7fe9ff;--auroraO:.70;--chip:rgba(255,255,255,.06);--chipBd:rgba(255,255,255,.16)}}
  text{font-family:'Segoe UI',system-ui,-apple-system,'Helvetica Neue',Arial,sans-serif}

  .pill{fill:var(--chip);stroke:var(--chipBd)}
  .lab{font-size:15.5px;font-weight:650;fill:var(--ink)}
  .ic{color:var(--ink)}
  @media (prefers-color-scheme:dark){.ic{color:var(--ink)}}
  @media (prefers-reduced-motion:reduce){*{animation:none!important}}
  </style>
  <defs>
    <linearGradient id="gloss" x1="0" y1="0" x2="0" y2="1"><stop offset="0" stop-color="#fff" stop-opacity=".18"/><stop offset=".6" stop-color="#fff" stop-opacity="0"/></linearGradient>
    <clipPath id="clip"><rect x="1" y="1" width="198" height="52" rx="14"/></clipPath>
  </defs>
  <rect class="pill" x="1" y="1" width="198" height="52" rx="14"/>
  <rect x="1" y="1" width="198" height="52" rx="14" fill="url(#gloss)" clip-path="url(#clip)"/>
  <g class="ic" transform="translate(18, 16) scale(0.92)"><path fill="currentColor" d="M12 .297c-6.63 0-12 5.373-12 12 0 5.303 3.438 9.8 8.205 11.385.6.113.82-.258.82-.577 0-.285-.01-1.04-.015-2.04-3.338.724-4.042-1.61-4.042-1.61C4.422 18.07 3.633 17.7 3.633 17.7c-1.087-.744.084-.729.084-.729 1.205.084 1.838 1.236 1.838 1.236 1.07 1.835 2.809 1.305 3.495.998.108-.776.417-1.305.76-1.605-2.665-.3-5.466-1.332-5.466-5.93 0-1.31.465-2.38 1.235-3.22-.135-.303-.54-1.523.105-3.176 0 0 1.005-.322 3.3 1.23.96-.267 1.98-.399 3-.405 1.02.006 2.04.138 3 .405 2.28-1.552 3.285-1.23 3.285-1.23.645 1.653.24 2.873.12 3.176.765.84 1.23 1.91 1.23 3.22 0 4.61-2.805 5.625-5.475 5.92.42.36.81 1.096.81 2.22 0 1.606-.015 2.896-.015 3.286 0 .315.21.69.825.57C20.565 22.092 24 17.592 24 12.297c0-6.627-5.373-12-12-12"/></g>
  <text class="lab" x="50" y="32">GitHub</text>
</svg>
