<svg xmlns="http://www.w3.org/2000/svg" xmlns:xlink="http://www.w3.org/1999/xlink" width="200" height="54" viewBox="0 0 200 54" role="img" aria-label="XING">
  <title>XING</title>
  <style>
  svg{--bg1:#eef1f7;--bg2:#dde4ef;--ink:#1f2630;--mut:#5b6473;--accent:#2f5fe6;--stroke:rgba(20,26,48,.12);--frost:rgba(255,255,255,.60);--glow:#3f74ff;--auroraO:.46;--chip:#ffffff;--chipBd:rgba(20,26,48,.14)}@media (prefers-color-scheme:dark){svg{--bg1:#080b16;--bg2:#10162c;--ink:#f3f6fc;--mut:#aab3c5;--accent:#5ce1ff;--stroke:rgba(255,255,255,.12);--frost:rgba(8,11,22,.42);--glow:#7fe9ff;--auroraO:.70;--chip:rgba(255,255,255,.06);--chipBd:rgba(255,255,255,.16)}}
  text{font-family:'Segoe UI',system-ui,-apple-system,'Helvetica Neue',Arial,sans-serif}

  .pill{fill:var(--chip);stroke:var(--chipBd)}
  .lab{font-size:15.5px;font-weight:650;fill:var(--ink)}
  .ic{color:#0E7C7B}
  @media (prefers-color-scheme:dark){.ic{color:#2fd4c9}}
  @media (prefers-reduced-motion:reduce){*{animation:none!important}}
  </style>
  <defs>
    <linearGradient id="gloss" x1="0" y1="0" x2="0" y2="1"><stop offset="0" stop-color="#fff" stop-opacity=".18"/><stop offset=".6" stop-color="#fff" stop-opacity="0"/></linearGradient>
    <clipPath id="clip"><rect x="1" y="1" width="198" height="52" rx="14"/></clipPath>
  </defs>
  <rect class="pill" x="1" y="1" width="198" height="52" rx="14"/>
  <rect x="1" y="1" width="198" height="52" rx="14" fill="url(#gloss)" clip-path="url(#clip)"/>
  <g class="ic" transform="translate(18, 16) scale(0.92)"><path fill="currentColor" d="M18.188 0c-.517 0-.741.325-.927.66 0 0-7.455 13.224-7.702 13.657.015.024 4.919 9.023 4.919 9.023.17.308.436.66.967.66h3.454c.211 0 .375-.078.463-.22.089-.151.089-.346-.009-.536l-4.879-8.916c-.004-.006-.004-.016 0-.022L22.139.756c.095-.191.097-.387.006-.535C22.056.078 21.894 0 21.686 0h-3.498zM3.648 4.74c-.211 0-.385.074-.473.216-.09.149-.078.339.02.531l2.34 4.05c.004.01.004.016 0 .021L1.86 16.051c-.099.188-.093.381 0 .529.085.142.239.234.45.234h3.461c.518 0 .766-.348.945-.667l3.734-6.609-2.378-4.155c-.172-.315-.434-.659-.962-.659H3.648v.016z"/></g>
  <text class="lab" x="50" y="32">XING</text>
</svg>
