<svg xmlns="http://www.w3.org/2000/svg" xmlns:xlink="http://www.w3.org/1999/xlink" width="200" height="54" viewBox="0 0 200 54" role="img" aria-label="LinkedIn">
  <title>LinkedIn</title>
  <style>
  svg{--bg1:#eef1f7;--bg2:#dde4ef;--ink:#1f2630;--mut:#5b6473;--accent:#2f5fe6;--stroke:rgba(20,26,48,.12);--frost:rgba(255,255,255,.60);--glow:#3f74ff;--auroraO:.55;--chip:#ffffff;--chipBd:rgba(20,26,48,.14)}@media (prefers-color-scheme:dark){svg{--bg1:#080b16;--bg2:#10162c;--ink:#f3f6fc;--mut:#aab3c5;--accent:#5ce1ff;--stroke:rgba(255,255,255,.12);--frost:rgba(8,11,22,.42);--glow:#7fe9ff;--auroraO:.85;--chip:rgba(255,255,255,.06);--chipBd:rgba(255,255,255,.16)}}
  text{font-family:'Segoe UI',system-ui,-apple-system,'Helvetica Neue',Arial,sans-serif}

  .pill{fill:var(--chip);stroke:var(--chipBd)}
  .lab{font-size:15.5px;font-weight:650;fill:var(--ink)}
  .ic{color:#0A66C2}
  @media (prefers-color-scheme:dark){.ic{color:#4eb0f2}}
  @media (prefers-reduced-motion:reduce){*{animation:none!important}}
  </style>
  <defs>
    <linearGradient id="gloss" x1="0" y1="0" x2="0" y2="1"><stop offset="0" stop-color="#fff" stop-opacity=".18"/><stop offset=".6" stop-color="#fff" stop-opacity="0"/></linearGradient>
    <clipPath id="clip"><rect x="1" y="1" width="198" height="52" rx="14"/></clipPath>
  </defs>
  <rect class="pill" x="1" y="1" width="198" height="52" rx="14"/>
  <rect x="1" y="1" width="198" height="52" rx="14" fill="url(#gloss)" clip-path="url(#clip)"/>
  <g class="ic" transform="translate(18, 16) scale(0.92)"><path fill="currentColor" d="M20.447 20.452h-3.554v-5.569c0-1.328-.027-3.037-1.852-3.037-1.853 0-2.136 1.445-2.136 2.939v5.667H9.351V9h3.414v1.561h.046c.477-.9 1.637-1.85 3.37-1.85 3.601 0 4.267 2.37 4.267 5.455v6.286zM5.337 7.433c-1.144 0-2.063-.926-2.063-2.065 0-1.138.92-2.063 2.063-2.063 1.14 0 2.064.925 2.064 2.063 0 1.139-.925 2.065-2.064 2.065zm1.782 13.019H3.555V9h3.564v11.452zM22.225 0H1.771C.792 0 0 .774 0 1.729v20.542C0 23.227.792 24 1.771 24h20.451C23.2 24 24 23.227 24 22.271V1.729C24 .774 23.2 0 22.222 0h.003z"/></g>
  <text class="lab" x="50" y="32">LinkedIn</text>
</svg>
