<svg xmlns="http://www.w3.org/2000/svg" xmlns:xlink="http://www.w3.org/1999/xlink" width="880" height="116" viewBox="0 0 880 116" role="img" aria-label="Tech-Stack: TypeScript, React, Next.js, Vue, Tailwind CSS, Radix UI, TanStack Query, React Native / Expo, Tauri, Rust, Supabase, PostgreSQL, Node.js, Stripe, AWS, Claude (Anthropic), Ollama, Deepgram, Vitest, Playwright, Git, GitHub Actions, Jira">
  <title>Tech-Stack: TypeScript, React, Next.js, Vue, Tailwind CSS, Radix UI, TanStack Query, React Native / Expo, Tauri, Rust, Supabase, PostgreSQL, Node.js, Stripe, AWS, Claude (Anthropic), Ollama, Deepgram, Vitest, Playwright, Git, GitHub Actions, Jira</title>
  <style>
  svg{--bg1:#eef1f7;--bg2:#dfe5ef;--ic:#222831;--accent:#2f64f0;--stroke:rgba(20,26,48,.10);--frost:rgba(255,255,255,.60);--sweepGlow:#3f74ff;--auroraO:.42}
  @media (prefers-color-scheme:dark){svg{--bg1:#080b16;--bg2:#10162c;--ic:#ffffff;--accent:#5ce1ff;--stroke:rgba(255,255,255,.10);--frost:rgba(8,11,22,.42);--sweepGlow:#7fe9ff;--auroraO:.70}}
  .gs1{stop-color:var(--bg1)} .gs2{stop-color:var(--bg2)}
  .glowStop{stop-color:var(--sweepGlow)}
  .panel{fill:url(#bgGrad);stroke:var(--stroke);stroke-width:1}
  .frost{fill:var(--frost)}
  .aurora{opacity:var(--auroraO)}
  .b1,.b2,.b3,.b4{transform-box:fill-box;transform-origin:center}
  .track{animation:marquee 40s linear infinite}
  .b1{animation:d1 24s ease-in-out infinite}.b2{animation:d2 31s ease-in-out infinite}
  .b3{animation:d3 19s ease-in-out infinite}.b4{animation:d2 27s ease-in-out infinite reverse}
  .sweep{animation:sweep 9s cubic-bezier(.4,0,.15,1) infinite}
  @keyframes marquee{to{transform:translateX(-1656px)}}
  @keyframes sweep{0%{transform:translateX(-340px);opacity:0}10%{opacity:1}40%{transform:translateX(920px);opacity:1}47%{opacity:0}100%{transform:translateX(920px);opacity:0}}
  @keyframes d1{0%,100%{transform:translate(0,0) scale(1)}50%{transform:translate(80px,-22px) scale(1.18)}}
  @keyframes d2{0%,100%{transform:translate(0,0) scale(1)}50%{transform:translate(-66px,20px) scale(1.12)}}
  @keyframes d3{0%,100%{transform:translate(0,0)}50%{transform:translate(54px,16px)}}
  @media (prefers-reduced-motion:reduce){.track,.b1,.b2,.b3,.b4{animation:none}.sweep{animation:none;opacity:0}}
  </style>
  <defs>
    <linearGradient id="bgGrad" x1="0" y1="0" x2="0.7" y2="1"><stop class="gs1" offset="0"/><stop class="gs2" offset="0.55"/><stop class="gs1" offset="1"/></linearGradient>
    <radialGradient id="aGreen"><stop offset="0" stop-color="#3FCF8E" stop-opacity=".9"/><stop offset="1" stop-color="#3FCF8E" stop-opacity="0"/></radialGradient>
    <radialGradient id="aBlue"><stop offset="0" stop-color="#3178C6" stop-opacity=".9"/><stop offset="1" stop-color="#3178C6" stop-opacity="0"/></radialGradient>
    <radialGradient id="aViolet"><stop offset="0" stop-color="#4F66E0" stop-opacity=".9"/><stop offset="1" stop-color="#4F66E0" stop-opacity="0"/></radialGradient>
    <radialGradient id="aCoral"><stop offset="0" stop-color="#D97757" stop-opacity=".85"/><stop offset="1" stop-color="#D97757" stop-opacity="0"/></radialGradient>
    <linearGradient id="bandG"><stop offset="0" stop-color="#000"/><stop offset="0.5" stop-color="#fff"/><stop offset="1" stop-color="#000"/></linearGradient>
    <linearGradient id="glowG"><stop class="glowStop" offset="0" stop-opacity="0"/><stop class="glowStop" offset="0.5" stop-opacity=".62"/><stop class="glowStop" offset="1" stop-opacity="0"/></linearGradient>
    <linearGradient id="fadeG" gradientUnits="userSpaceOnUse" x1="0" y1="0" x2="880" y2="0"><stop offset="0" stop-color="#000"/><stop offset="0.070" stop-color="#fff"/><stop offset="0.930" stop-color="#fff"/><stop offset="1" stop-color="#000"/></linearGradient>
    <linearGradient id="gloss" x1="0" y1="0" x2="0" y2="1"><stop offset="0" stop-color="#fff" stop-opacity=".18"/><stop offset="0.5" stop-color="#fff" stop-opacity="0"/></linearGradient>
    <filter id="soft" x="-60%" y="-60%" width="220%" height="220%"><feGaussianBlur stdDeviation="26"/></filter>
    <filter id="glow" x="-30%" y="-60%" width="160%" height="220%"><feGaussianBlur stdDeviation="2.1" result="b"/><feMerge><feMergeNode in="b"/><feMergeNode in="SourceGraphic"/></feMerge></filter>
    <clipPath id="clip"><rect x="0" y="0" width="880" height="116" rx="20"/></clipPath>
    <mask id="edge"><rect x="0" y="0" width="880" height="116" fill="url(#fadeG)"/></mask>
    <mask id="band" maskUnits="userSpaceOnUse" x="0" y="0" width="880" height="116"><rect class="sweep" x="0" y="0" width="300" height="116" fill="url(#bandG)"/></mask>
    <g id="strip">
      <g transform="translate(21, 43) scale(1.25)"><title>TypeScript</title><path fill="currentColor" d="M1.125 0C.502 0 0 .502 0 1.125v21.75C0 23.498.502 24 1.125 24h21.75c.623 0 1.125-.502 1.125-1.125V1.125C24 .502 23.498 0 22.875 0zm17.363 9.75c.612 0 1.154.037 1.627.111a6.38 6.38 0 0 1 1.306.34v2.458a3.95 3.95 0 0 0-.643-.361 5.093 5.093 0 0 0-.717-.26 5.453 5.453 0 0 0-1.426-.2c-.3 0-.573.028-.819.086a2.1 2.1 0 0 0-.623.242c-.17.104-.3.229-.393.374a.888.888 0 0 0-.14.49c0 .196.053.373.156.529.104.156.252.304.443.444s.423.276.696.41c.273.135.582.274.926.416.47.197.892.407 1.266.628.374.222.695.473.963.753.268.279.472.598.614.957.142.359.214.776.214 1.253 0 .657-.125 1.21-.373 1.656a3.033 3.033 0 0 1-1.012 1.085 4.38 4.38 0 0 1-1.487.596c-.566.12-1.163.18-1.79.18a9.916 9.916 0 0 1-1.84-.164 5.544 5.544 0 0 1-1.512-.493v-2.63a5.033 5.033 0 0 0 3.237 1.2c.333 0 .624-.03.872-.09.249-.06.456-.144.623-.25.166-.108.29-.234.373-.38a1.023 1.023 0 0 0-.074-1.089 2.12 2.12 0 0 0-.537-.5 5.597 5.597 0 0 0-.807-.444 27.72 27.72 0 0 0-1.007-.436c-.918-.383-1.602-.852-2.053-1.405-.45-.553-.676-1.222-.676-2.005 0-.614.123-1.141.369-1.582.246-.441.58-.804 1.004-1.089a4.494 4.494 0 0 1 1.47-.629 7.536 7.536 0 0 1 1.77-.201zm-15.113.188h9.563v2.166H9.506v9.646H6.789v-9.646H3.375z"/></g>
      <g transform="translate(93, 43) scale(1.25)"><title>React</title><path fill="currentColor" d="M14.23 12.004a2.236 2.236 0 0 1-2.235 2.236 2.236 2.236 0 0 1-2.236-2.236 2.236 2.236 0 0 1 2.235-2.236 2.236 2.236 0 0 1 2.236 2.236zm2.648-10.69c-1.346 0-3.107.96-4.888 2.622-1.78-1.653-3.542-2.602-4.887-2.602-.41 0-.783.093-1.106.278-1.375.793-1.683 3.264-.973 6.365C1.98 8.917 0 10.42 0 12.004c0 1.59 1.99 3.097 5.043 4.03-.704 3.113-.39 5.588.988 6.38.32.187.69.275 1.102.275 1.345 0 3.107-.96 4.888-2.624 1.78 1.654 3.542 2.603 4.887 2.603.41 0 .783-.09 1.106-.275 1.374-.792 1.683-3.263.973-6.365C22.02 15.096 24 13.59 24 12.004c0-1.59-1.99-3.097-5.043-4.032.704-3.11.39-5.587-.988-6.38-.318-.184-.688-.277-1.092-.278zm-.005 1.09v.006c.225 0 .406.044.558.127.666.382.955 1.835.73 3.704-.054.46-.142.945-.25 1.44-.96-.236-2.006-.417-3.107-.534-.66-.905-1.345-1.727-2.035-2.447 1.592-1.48 3.087-2.292 4.105-2.295zm-9.77.02c1.012 0 2.514.808 4.11 2.28-.686.72-1.37 1.537-2.02 2.442-1.107.117-2.154.298-3.113.538-.112-.49-.195-.964-.254-1.42-.23-1.868.054-3.32.714-3.707.19-.09.4-.127.563-.132zm4.882 3.05c.455.468.91.992 1.36 1.564-.44-.02-.89-.034-1.345-.034-.46 0-.915.01-1.36.034.44-.572.895-1.096 1.345-1.565zM12 8.1c.74 0 1.477.034 2.202.093.406.582.802 1.203 1.183 1.86.372.64.71 1.29 1.018 1.946-.308.655-.646 1.31-1.013 1.95-.38.66-.773 1.288-1.18 1.87-.728.063-1.466.098-2.21.098-.74 0-1.477-.035-2.202-.093-.406-.582-.802-1.204-1.183-1.86-.372-.64-.71-1.29-1.018-1.946.303-.657.646-1.313 1.013-1.954.38-.66.773-1.286 1.18-1.868.728-.064 1.466-.098 2.21-.098zm-3.635.254c-.24.377-.48.763-.704 1.16-.225.39-.435.782-.635 1.174-.265-.656-.49-1.31-.676-1.947.64-.15 1.315-.283 2.015-.386zm7.26 0c.695.103 1.365.23 2.006.387-.18.632-.405 1.282-.66 1.933-.2-.39-.41-.783-.64-1.174-.225-.392-.465-.774-.705-1.146zm3.063.675c.484.15.944.317 1.375.498 1.732.74 2.852 1.708 2.852 2.476-.005.768-1.125 1.74-2.857 2.475-.42.18-.88.342-1.355.493-.28-.958-.646-1.956-1.1-2.98.45-1.017.81-2.01 1.085-2.964zm-13.395.004c.278.96.645 1.957 1.1 2.98-.45 1.017-.812 2.01-1.086 2.964-.484-.15-.944-.318-1.37-.5-1.732-.737-2.852-1.706-2.852-2.474 0-.768 1.12-1.742 2.852-2.476.42-.18.88-.342 1.356-.494zm11.678 4.28c.265.657.49 1.312.676 1.948-.64.157-1.316.29-2.016.39.24-.375.48-.762.705-1.158.225-.39.435-.788.636-1.18zm-9.945.02c.2.392.41.783.64 1.175.23.39.465.772.705 1.143-.695-.102-1.365-.23-2.006-.386.18-.63.406-1.282.66-1.933zM17.92 16.32c.112.493.2.968.254 1.423.23 1.868-.054 3.32-.714 3.708-.147.09-.338.128-.563.128-1.012 0-2.514-.807-4.11-2.28.686-.72 1.37-1.536 2.02-2.44 1.107-.118 2.154-.3 3.113-.54zm-11.83.01c.96.234 2.006.415 3.107.532.66.905 1.345 1.727 2.035 2.446-1.595 1.483-3.092 2.295-4.11 2.295-.22-.005-.406-.05-.553-.132-.666-.38-.955-1.834-.73-3.703.054-.46.142-.944.25-1.438zm4.56.64c.44.02.89.034 1.345.034.46 0 .915-.01 1.36-.034-.44.572-.895 1.095-1.345 1.565-.455-.47-.91-.993-1.36-1.565z"/></g>
      <g transform="translate(165, 43) scale(1.25)"><title>Next.js</title><path fill="currentColor" d="M18.665 21.978C16.758 23.255 14.465 24 12 24 5.377 24 0 18.623 0 12S5.377 0 12 0s12 5.377 12 12c0 3.583-1.574 6.801-4.067 9.001L9.219 7.2H7.2v9.596h1.615V9.251l9.85 12.727Zm-3.332-8.533 1.6 2.061V7.2h-1.6v6.245Z"/></g>
      <g transform="translate(237, 43) scale(1.25)"><title>Vue</title><path fill="currentColor" d="M24,1.61H14.06L12,5.16,9.94,1.61H0L12,22.39ZM12,14.08,5.16,2.23H9.59L12,6.41l2.41-4.18h4.43Z"/></g>
      <g transform="translate(309, 43) scale(1.25)"><title>Tailwind CSS</title><path fill="currentColor" d="M12.001,4.8c-3.2,0-5.2,1.6-6,4.8c1.2-1.6,2.6-2.2,4.2-1.8c0.913,0.228,1.565,0.89,2.288,1.624 C13.666,10.618,15.027,12,18.001,12c3.2,0,5.2-1.6,6-4.8c-1.2,1.6-2.6,2.2-4.2,1.8c-0.913-0.228-1.565-0.89-2.288-1.624 C16.337,6.182,14.976,4.8,12.001,4.8z M6.001,12c-3.2,0-5.2,1.6-6,4.8c1.2-1.6,2.6-2.2,4.2-1.8c0.913,0.228,1.565,0.89,2.288,1.624 c1.177,1.194,2.538,2.576,5.512,2.576c3.2,0,5.2-1.6,6-4.8c-1.2,1.6-2.6,2.2-4.2,1.8c-0.913-0.228-1.565-0.89-2.288-1.624 C10.337,13.382,8.976,12,6.001,12z"/></g>
      <g transform="translate(381, 43) scale(1.25)"><title>Radix UI</title><path fill="currentColor" d="M11.52 24a7.68 7.68 0 0 1-7.68-7.68 7.68 7.68 0 0 1 7.68-7.68V24Zm0-24v7.68H3.84V0h7.68Zm4.8 7.68a3.84 3.84 0 1 1 0-7.68 3.84 3.84 0 0 1 0 7.68Z"/></g>
      <g transform="translate(453, 43) scale(1.25)"><title>TanStack Query</title><path fill="currentColor" d="M6.9297 13.6875c.164-.0938.375-.0352.4687.1328l.0625.1055c.4805.8515.9805 1.6601 1.5 2.4258.6133.9023 1.3047 1.8164 2.0743 2.7421a.3455.3455 0 0 1-.0391.4844l-.0742.0664c-2.543 2.2227-4.1914 2.664-4.9532 1.332-.746-1.3046-.4765-3.6718.8086-7.1093a.3437.3437 0 0 1 .1524-.1797ZM17.75 16.3008c.1836-.0313.3594.086.3945.2695l.0196.1016c.6289 3.2851.1875 4.9297-1.3243 4.9297-1.4804 0-3.3593-1.4024-5.6484-4.2032a.3271.3271 0 0 1-.0742-.2226c0-.1875.1562-.3399.3437-.3399h.1211a32.9838 32.9838 0 0 0 2.8086-.0976c1.0703-.086 2.1914-.2305 3.3594-.4375zm.871-6.9766a.3528.3528 0 0 1 .4454-.211l.1016.0352c3.2617 1.1094 4.5039 2.332 3.7187 3.6641-.7656 1.3047-2.9922 2.254-6.6836 2.8477-.082.0117-.168-.004-.2383-.047-.168-.0976-.2265-.3085-.125-.4765l.0625-.1054c.504-.8438.957-1.6836 1.3672-2.5235.4766-.9883.9297-2.0508 1.3516-3.1836zM7.797 8.3398c.082-.0117.168.004.2383.047.168.0976.2265.3085.125.4765l-.0625.1054a34.0882 34.0882 0 0 0-1.3672 2.5235c-.4766.9883-.9297 2.0508-1.3516 3.1836a.3528.3528 0 0 1-.4453.211l-.1016-.0352c-3.2617-1.1094-4.5039-2.332-3.7187-3.6641.7656-1.3047 2.9922-2.254 6.6836-2.8477Zm5.2812-3.9843c2.543-2.2227 4.1914-2.664 4.9532-1.332.746 1.3046.4765 3.6718-.8086 7.1093a.3436.3436 0 0 1-.1524.1797c-.164.0938-.375.0352-.4687-.1328l-.0625-.1055c-.4805-.8515-.9805-1.6601-1.5-2.4258-.6133-.9023-1.3047-1.8164-2.0743-2.7421a.3455.3455 0 0 1 .0391-.4844Zm-5.793-2.082c1.4805 0 3.3633 1.4023 5.6485 4.203a.3488.3488 0 0 1 .0781.2188c-.0039.1914-.1562.3438-.3476.3438l-.1172-.004a34.5835 34.5835 0 0 0-2.8086.1016c-1.0742.086-2.1953.2305-3.3633.4375a.343.343 0 0 1-.3945-.2734l-.0196-.0977c-.629-3.2851-.1876-4.9297 1.3242-4.9297Zm2.8711 5.8124h3.6875a.638.638 0 0 1 .5508.3164l1.8477 3.2188a.6437.6437 0 0 1 0 .6289l-1.8477 3.2227a.638.638 0 0 1-.5507.3164h-3.6875c-.2266 0-.4375-.1211-.547-.3164L7.7579 12.25a.6437.6437 0 0 1 0-.629l1.8516-3.2187c.1093-.1953.3203-.3164.5468-.3164Zm3.2305.793a.638.638 0 0 1 .5508.3164l1.3906 2.4258a.6437.6437 0 0 1 0 .6289l-1.3906 2.4297a.638.638 0 0 1-.5508.3164h-2.7734c-.2266 0-.4375-.1211-.5469-.3164L8.672 12.25a.6437.6437 0 0 1 0-.629l1.3945-2.4257c.1094-.1953.3203-.3164.5469-.3164Zm-.4922.8672h-1.789c-.2266 0-.4336.1172-.547.3164l-.8983 1.5586a.6437.6437 0 0 0 0 .6289l.8984 1.5625a.6317.6317 0 0 0 .5469.3164h1.789a.6317.6317 0 0 0 .547-.3164l.8983-1.5625a.6437.6437 0 0 0 0-.629l-.8984-1.5585c-.1133-.1992-.3203-.3164-.5469-.3164Zm-.4765.8281c.2265 0 .4375.1211.5468.3164l.422.7305c.1132.1953.1132.4375 0 .6289l-.422.7344c-.1093.1953-.3203.3164-.5468.3164h-.836a.6317.6317 0 0 1-.5468-.3164l-.422-.7344c-.1132-.1914-.1132-.4336 0-.629l.422-.7304a.6317.6317 0 0 1 .5468-.3164zm-.418.8164a.548.548 0 0 0-.4727.2735c-.0976.168-.0976.375 0 .5468a.5444.5444 0 0 0 .4727.2696.5444.5444 0 0 0 .4727-.2696c.0976-.1718.0976-.3789 0-.5468A.548.548 0 0 0 12 11.3906Zm-4.4219.5469h.9805M18.9805 7.75c.3906-1.8945.4765-3.3438.2226-4.3984-.1484-.629-.4218-1.1368-.8398-1.5078-.4414-.3907-1-.582-1.625-.582-1.0352 0-2.1211.4726-3.2813 1.3671-.4726.3633-.9648.8047-1.4726 1.3164-.043-.0508-.086-.1015-.1367-.1445-1.4454-1.2852-2.6602-2.082-3.6993-2.3906-.6171-.1836-1.1953-.1993-1.7226-.0235-.5586.1875-1.004.5742-1.3164 1.1172-.5156.8945-.6524 2.0742-.461 3.5274.0782.5898.2149 1.2343.4024 1.9335a1.1187 1.1187 0 0 0-.2149.047C3.008 8.621 1.711 9.2694.9258 10.0155c-.4649.4414-.7695.9375-.8828 1.4805-.1133.5781 0 1.1562.3125 1.6992.5156.8945 1.4648 1.5977 2.8164 2.1563.543.2226 1.1562.4257 1.8437.6093a1.0227 1.0227 0 0 0-.0703.2266c-.3906 1.8906-.4765 3.3438-.2226 4.3945.1484.629.4257 1.1407.8398 1.5078.4414.3907 1 .582 1.625.582 1.0352 0 2.121-.4726 3.2813-1.3632.4765-.3711.9726-.8164 1.4882-1.336a1.2 1.2 0 0 0 .1953.2266c1.4454 1.2852 2.6602 2.082 3.6993 2.3906.6172.1836 1.1953.1993 1.7226.0235.5586-.1875 1.004-.5742 1.3164-1.1172.5157-.8945.6524-2.0742.461-3.5273-.082-.6133-.2227-1.2813-.4258-2.0118a1.2248 1.2248 0 0 0 .2383-.0468c1.828-.6094 3.125-1.2578 3.9101-2.004.4649-.4413.7696-.9374.8828-1.4804.1133-.5781 0-1.1563-.3125-1.6992-.5156-.8946-1.4648-1.5977-2.8164-2.1563-.5586-.2304-1.1953-.4414-1.9062-.625a.8647.8647 0 0 0 .0586-.1953z"/></g>
      <g transform="translate(525, 43) scale(1.25)"><title>React Native / Expo</title><path fill="currentColor" d="M0 20.084c.043.53.23 1.063.718 1.778.58.849 1.576 1.315 2.303.567.49-.505 5.794-9.776 8.35-13.29a.761.761 0 011.248 0c2.556 3.514 7.86 12.785 8.35 13.29.727.748 1.723.282 2.303-.567.57-.835.728-1.42.728-2.046 0-.426-8.26-15.798-9.092-17.078-.8-1.23-1.044-1.498-2.397-1.542h-1.032c-1.353.044-1.597.311-2.398 1.542C8.267 3.991.33 18.758 0 19.77Z"/></g>
      <g transform="translate(597, 43) scale(1.25)"><title>Tauri</title><path fill="currentColor" d="M13.912 0a8.72 8.72 0 0 0-8.308 6.139c1.05-.515 2.18-.845 3.342-.976 2.415-3.363 7.4-3.412 9.88-.097 2.48 3.315 1.025 8.084-2.883 9.45a6.131 6.131 0 0 1-.3 2.762 8.72 8.72 0 0 0 3.01-1.225A8.72 8.72 0 0 0 13.913 0zm.082 6.451a2.284 2.284 0 1 0-.15 4.566 2.284 2.284 0 0 0 .15-4.566zm-5.629.27a8.72 8.72 0 0 0-3.031 1.235 8.72 8.72 0 1 0 13.06 9.9131 10.173 10.174 0 0 1-3.343.965 6.125 6.125 0 1 1-7.028-9.343 6.114 6.115 0 0 1 .342-2.772zm1.713 6.27a2.284 2.284 0 0 0-2.284 2.283 2.284 2.284 0 0 0 2.284 2.284 2.284 2.284 0 0 0 2.284-2.284 2.284 2.284 0 0 0-2.284-2.284z"/></g>
      <g transform="translate(669, 43) scale(1.25)"><title>Rust</title><path fill="currentColor" d="M23.8346 11.7033l-1.0073-.6236a13.7268 13.7268 0 00-.0283-.2936l.8656-.8069a.3483.3483 0 00-.1154-.578l-1.1066-.414a8.4958 8.4958 0 00-.087-.2856l.6904-.9587a.3462.3462 0 00-.2257-.5446l-1.1663-.1894a9.3574 9.3574 0 00-.1407-.2622l.49-1.0761a.3437.3437 0 00-.0274-.3361.3486.3486 0 00-.3006-.154l-1.1845.0416a6.7444 6.7444 0 00-.1873-.2268l.2723-1.153a.3472.3472 0 00-.417-.4172l-1.1532.2724a14.0183 14.0183 0 00-.2278-.1873l.0415-1.1845a.3442.3442 0 00-.49-.328l-1.076.491c-.0872-.0476-.1742-.0952-.2623-.1407l-.1903-1.1673A.3483.3483 0 0016.256.955l-.9597.6905a8.4867 8.4867 0 00-.2855-.086l-.414-1.1066a.3483.3483 0 00-.5781-.1154l-.8069.8666a9.2936 9.2936 0 00-.2936-.0284L12.2946.1683a.3462.3462 0 00-.5892 0l-.6236 1.0073a13.7383 13.7383 0 00-.2936.0284L9.9803.3374a.3462.3462 0 00-.578.1154l-.4141 1.1065c-.0962.0274-.1903.0567-.2855.086L7.744.955a.3483.3483 0 00-.5447.2258L7.009 2.348a9.3574 9.3574 0 00-.2622.1407l-1.0762-.491a.3462.3462 0 00-.49.328l.0416 1.1845a7.9826 7.9826 0 00-.2278.1873L3.8413 3.425a.3472.3472 0 00-.4171.4171l.2713 1.1531c-.0628.075-.1255.1509-.1863.2268l-1.1845-.0415a.3462.3462 0 00-.328.49l.491 1.0761a9.167 9.167 0 00-.1407.2622l-1.1662.1894a.3483.3483 0 00-.2258.5446l.6904.9587a13.303 13.303 0 00-.087.2855l-1.1065.414a.3483.3483 0 00-.1155.5781l.8656.807a9.2936 9.2936 0 00-.0283.2935l-1.0073.6236a.3442.3442 0 000 .5892l1.0073.6236c.008.0982.0182.1964.0283.2936l-.8656.8079a.3462.3462 0 00.1155.578l1.1065.4141c.0273.0962.0567.1914.087.2855l-.6904.9587a.3452.3452 0 00.2268.5447l1.1662.1893c.0456.088.0922.1751.1408.2622l-.491 1.0762a.3462.3462 0 00.328.49l1.1834-.0415c.0618.0769.1235.1528.1873.2277l-.2713 1.1541a.3462.3462 0 00.4171.4161l1.153-.2713c.075.0638.151.1255.2279.1863l-.0415 1.1845a.3442.3442 0 00.49.327l1.0761-.49c.087.0486.1741.0951.2622.1407l.1903 1.1662a.3483.3483 0 00.5447.2268l.9587-.6904a9.299 9.299 0 00.2855.087l.414 1.1066a.3452.3452 0 00.5781.1154l.8079-.8656c.0972.0111.1954.0203.2936.0294l.6236 1.0073a.3472.3472 0 00.5892 0l.6236-1.0073c.0982-.0091.1964-.0183.2936-.0294l.8069.8656a.3483.3483 0 00.578-.1154l.4141-1.1066a8.4626 8.4626 0 00.2855-.087l.9587.6904a.3452.3452 0 00.5447-.2268l.1903-1.1662c.088-.0456.1751-.0931.2622-.1407l1.0762.49a.3472.3472 0 00.49-.327l-.0415-1.1845a6.7267 6.7267 0 00.2267-.1863l1.1531.2713a.3472.3472 0 00.4171-.416l-.2713-1.1542c.0628-.0749.1255-.1508.1863-.2278l1.1845.0415a.3442.3442 0 00.328-.49l-.49-1.076c.0475-.0872.0951-.1742.1407-.2623l1.1662-.1893a.3483.3483 0 00.2258-.5447l-.6904-.9587.087-.2855 1.1066-.414a.3462.3462 0 00.1154-.5781l-.8656-.8079c.0101-.0972.0202-.1954.0283-.2936l1.0073-.6236a.3442.3442 0 000-.5892zm-6.7413 8.3551a.7138.7138 0 01.2986-1.396.714.714 0 11-.2997 1.396zm-.3422-2.3142a.649.649 0 00-.7715.5l-.3573 1.6685c-1.1035.501-2.3285.7795-3.6193.7795a8.7368 8.7368 0 01-3.6951-.814l-.3574-1.6684a.648.648 0 00-.7714-.499l-1.473.3158a8.7216 8.7216 0 01-.7613-.898h7.1676c.081 0 .1356-.0141.1356-.088v-2.536c0-.074-.0536-.0881-.1356-.0881h-2.0966v-1.6077h2.2677c.2065 0 1.1065.0587 1.394 1.2088.0901.3533.2875 1.5044.4232 1.8729.1346.413.6833 1.2381 1.2685 1.2381h3.5716a.7492.7492 0 00.1296-.0131 8.7874 8.7874 0 01-.8119.9526zM6.8369 20.024a.714.714 0 11-.2997-1.396.714.714 0 01.2997 1.396zM4.1177 8.9972a.7137.7137 0 11-1.304.5791.7137.7137 0 011.304-.579zm-.8352 1.9813l1.5347-.6824a.65.65 0 00.33-.8585l-.3158-.7147h1.2432v5.6025H3.5669a8.7753 8.7753 0 01-.2834-3.348zm6.7343-.5437V8.7836h2.9601c.153 0 1.0792.1772 1.0792.8697 0 .575-.7107.7815-1.2948.7815zm10.7574 1.4862c0 .2187-.008.4363-.0243.651h-.9c-.09 0-.1265.0586-.1265.1477v.413c0 .973-.5487 1.1846-1.0296 1.2382-.4576.0517-.9648-.1913-1.0275-.4717-.2704-1.5186-.7198-1.8436-1.4305-2.4034.8817-.5599 1.799-1.386 1.799-2.4915 0-1.1936-.819-1.9458-1.3769-2.3153-.7825-.5163-1.6491-.6195-1.883-.6195H5.4682a8.7651 8.7651 0 014.907-2.7699l1.0974 1.151a.648.648 0 00.9182.0213l1.227-1.1743a8.7753 8.7753 0 016.0044 4.2762l-.8403 1.8982a.652.652 0 00.33.8585l1.6178.7188c.0283.2875.0425.577.0425.8717zm-9.3006-9.5993a.7128.7128 0 11.984 1.0316.7137.7137 0 01-.984-1.0316zm8.3389 6.71a.7107.7107 0 01.9395-.3625.7137.7137 0 11-.9405.3635z"/></g>
      <g transform="translate(741, 43) scale(1.25)"><title>Supabase</title><path fill="currentColor" d="M11.9 1.036c-.015-.986-1.26-1.41-1.874-.637L.764 12.05C-.33 13.427.65 15.455 2.409 15.455h9.579l.113 7.51c.014.985 1.259 1.408 1.873.636l9.262-11.653c1.093-1.375.113-3.403-1.645-3.403h-9.642z"/></g>
      <g transform="translate(813, 43) scale(1.25)"><title>PostgreSQL</title><path fill="currentColor" d="M23.5594 14.7228a.5269.5269 0 0 0-.0563-.1191c-.139-.2632-.4768-.3418-1.0074-.2321-1.6533.3411-2.2935.1312-2.5256-.0191 1.342-2.0482 2.445-4.522 3.0411-6.8297.2714-1.0507.7982-3.5237.1222-4.7316a1.5641 1.5641 0 0 0-.1509-.235C21.6931.9086 19.8007.0248 17.5099.0005c-1.4947-.0158-2.7705.3461-3.1161.4794a9.449 9.449 0 0 0-.5159-.0816 8.044 8.044 0 0 0-1.3114-.1278c-1.1822-.0184-2.2038.2642-3.0498.8406-.8573-.3211-4.7888-1.645-7.2219.0788C.9359 2.1526.3086 3.8733.4302 6.3043c.0409.818.5069 3.334 1.2423 5.7436.4598 1.5065.9387 2.7019 1.4334 3.582.553.9942 1.1259 1.5933 1.7143 1.7895.4474.1491 1.1327.1441 1.8581-.7279.8012-.9635 1.5903-1.8258 1.9446-2.2069.4351.2355.9064.3625 1.39.3772a.0569.0569 0 0 0 .0004.0041 11.0312 11.0312 0 0 0-.2472.3054c-.3389.4302-.4094.5197-1.5002.7443-.3102.064-1.1344.2339-1.1464.8115-.0025.1224.0329.2309.0919.3268.2269.4231.9216.6097 1.015.6331 1.3345.3335 2.5044.092 3.3714-.6787-.017 2.231.0775 4.4174.3454 5.0874.2212.5529.7618 1.9045 2.4692 1.9043.2505 0 .5263-.0291.8296-.0941 1.7819-.3821 2.5557-1.1696 2.855-2.9059.1503-.8707.4016-2.8753.5388-4.1012.0169-.0703.0357-.1207.057-.1362.0007-.0005.0697-.0471.4272.0307a.3673.3673 0 0 0 .0443.0068l.2539.0223.0149.001c.8468.0384 1.9114-.1426 2.5312-.4308.6438-.2988 1.8057-1.0323 1.5951-1.6698zM2.371 11.8765c-.7435-2.4358-1.1779-4.8851-1.2123-5.5719-.1086-2.1714.4171-3.6829 1.5623-4.4927 1.8367-1.2986 4.8398-.5408 6.108-.13-.0032.0032-.0066.0061-.0098.0094-2.0238 2.044-1.9758 5.536-1.9708 5.7495-.0002.0823.0066.1989.0162.3593.0348.5873.0996 1.6804-.0735 2.9184-.1609 1.1504.1937 2.2764.9728 3.0892.0806.0841.1648.1631.2518.2374-.3468.3714-1.1004 1.1926-1.9025 2.1576-.5677.6825-.9597.5517-1.0886.5087-.3919-.1307-.813-.5871-1.2381-1.3223-.4796-.839-.9635-2.0317-1.4155-3.5126zm6.0072 5.0871c-.1711-.0428-.3271-.1132-.4322-.1772.0889-.0394.2374-.0902.4833-.1409 1.2833-.2641 1.4815-.4506 1.9143-1.0002.0992-.126.2116-.2687.3673-.4426a.3549.3549 0 0 0 .0737-.1298c.1708-.1513.2724-.1099.4369-.0417.156.0646.3078.26.3695.4752.0291.1016.0619.2945-.0452.4444-.9043 1.2658-2.2216 1.2494-3.1676 1.0128zm2.094-3.988-.0525.141c-.133.3566-.2567.6881-.3334 1.003-.6674-.0021-1.3168-.2872-1.8105-.8024-.6279-.6551-.9131-1.5664-.7825-2.5004.1828-1.3079.1153-2.4468.079-3.0586-.005-.0857-.0095-.1607-.0122-.2199.2957-.2621 1.6659-.9962 2.6429-.7724.4459.1022.7176.4057.8305.928.5846 2.7038.0774 3.8307-.3302 4.7363-.084.1866-.1633.3629-.2311.5454zm7.3637 4.5725c-.0169.1768-.0358.376-.0618.5959l-.146.4383a.3547.3547 0 0 0-.0182.1077c-.0059.4747-.054.6489-.115.8693-.0634.2292-.1353.4891-.1794 1.0575-.11 1.4143-.8782 2.2267-2.4172 2.5565-1.5155.3251-1.7843-.4968-2.0212-1.2217a6.5824 6.5824 0 0 0-.0769-.2266c-.2154-.5858-.1911-1.4119-.1574-2.5551.0165-.5612-.0249-1.9013-.3302-2.6462.0044-.2932.0106-.5909.019-.8918a.3529.3529 0 0 0-.0153-.1126 1.4927 1.4927 0 0 0-.0439-.208c-.1226-.4283-.4213-.7866-.7797-.9351-.1424-.059-.4038-.1672-.7178-.0869.067-.276.1831-.5875.309-.9249l.0529-.142c.0595-.16.134-.3257.213-.5012.4265-.9476 1.0106-2.2453.3766-5.1772-.2374-1.0981-1.0304-1.6343-2.2324-1.5098-.7207.0746-1.3799.3654-1.7088.5321a5.6716 5.6716 0 0 0-.1958.1041c.0918-1.1064.4386-3.1741 1.7357-4.4823a4.0306 4.0306 0 0 1 .3033-.276.3532.3532 0 0 0 .1447-.0644c.7524-.5706 1.6945-.8506 2.802-.8325.4091.0067.8017.0339 1.1742.081 1.939.3544 3.2439 1.4468 4.0359 2.3827.8143.9623 1.2552 1.9315 1.4312 2.4543-1.3232-.1346-2.2234.1268-2.6797.779-.9926 1.4189.543 4.1729 1.2811 5.4964.1353.2426.2522.4522.2889.5413.2403.5825.5515.9713.7787 1.2552.0696.087.1372.1714.1885.245-.4008.1155-1.1208.3825-1.0552 1.717-.0123.1563-.0423.4469-.0834.8148-.0461.2077-.0702.4603-.0994.7662zm.8905-1.6211c-.0405-.8316.2691-.9185.5967-1.0105a2.8566 2.8566 0 0 0 .135-.0406 1.202 1.202 0 0 0 .1342.103c.5703.3765 1.5823.4213 3.0068.1344-.2016.1769-.5189.3994-.9533.6011-.4098.1903-1.0957.333-1.7473.3636-.7197.0336-1.0859-.0807-1.1721-.151zm.5695-9.2712c-.0059.3508-.0542.6692-.1054 1.0017-.055.3576-.112.7274-.1264 1.1762-.0142.4368.0404.8909.0932 1.3301.1066.887.216 1.8003-.2075 2.7014a3.5272 3.5272 0 0 1-.1876-.3856c-.0527-.1276-.1669-.3326-.3251-.6162-.6156-1.1041-2.0574-3.6896-1.3193-4.7446.3795-.5427 1.3408-.5661 2.1781-.463zm.2284 7.0137a12.3762 12.3762 0 0 0-.0853-.1074l-.0355-.0444c.7262-1.1995.5842-2.3862.4578-3.4385-.0519-.4318-.1009-.8396-.0885-1.2226.0129-.4061.0666-.7543.1185-1.0911.0639-.415.1288-.8443.1109-1.3505.0134-.0531.0188-.1158.0118-.1902-.0457-.4855-.5999-1.938-1.7294-3.253-.6076-.7073-1.4896-1.4972-2.6889-2.0395.5251-.1066 1.2328-.2035 2.0244-.1859 2.0515.0456 3.6746.8135 4.8242 2.2824a.908.908 0 0 1 .0667.1002c.7231 1.3556-.2762 6.2751-2.9867 10.5405zm-8.8166-6.1162c-.025.1794-.3089.4225-.6211.4225a.5821.5821 0 0 1-.0809-.0056c-.1873-.026-.3765-.144-.5059-.3156-.0458-.0605-.1203-.178-.1055-.2844.0055-.0401.0261-.0985.0925-.1488.1182-.0894.3518-.1226.6096-.0867.3163.0441.6426.1938.6113.4186zm7.9305-.4114c.0111.0792-.049.201-.1531.3102-.0683.0717-.212.1961-.4079.2232a.5456.5456 0 0 1-.075.0052c-.2935 0-.5414-.2344-.5607-.3717-.024-.1765.2641-.3106.5611-.352.297-.0414.6111.0088.6356.1851z"/></g>
      <g transform="translate(885, 43) scale(1.25)"><title>Node.js</title><path fill="currentColor" d="M11.998,24c-0.321,0-0.641-0.084-0.922-0.247l-2.936-1.737c-0.438-0.245-0.224-0.332-0.08-0.383 c0.585-0.203,0.703-0.25,1.328-0.604c0.065-0.037,0.151-0.023,0.218,0.017l2.256,1.339c0.082,0.045,0.197,0.045,0.272,0l8.795-5.076 c0.082-0.047,0.134-0.141,0.134-0.238V6.921c0-0.099-0.053-0.192-0.137-0.242l-8.791-5.072c-0.081-0.047-0.189-0.047-0.271,0 L3.075,6.68C2.99,6.729,2.936,6.825,2.936,6.921v10.15c0,0.097,0.054,0.189,0.139,0.235l2.409,1.392 c1.307,0.654,2.108-0.116,2.108-0.89V7.787c0-0.142,0.114-0.253,0.256-0.253h1.115c0.139,0,0.255,0.112,0.255,0.253v10.021 c0,1.745-0.95,2.745-2.604,2.745c-0.508,0-0.909,0-2.026-0.551L2.28,18.675c-0.57-0.329-0.922-0.945-0.922-1.604V6.921 c0-0.659,0.353-1.275,0.922-1.603l8.795-5.082c0.557-0.315,1.296-0.315,1.848,0l8.794,5.082c0.57,0.329,0.924,0.944,0.924,1.603 v10.15c0,0.659-0.354,1.273-0.924,1.604l-8.794,5.078C12.643,23.916,12.324,24,11.998,24z M19.099,13.993 c0-1.9-1.284-2.406-3.987-2.763c-2.731-0.361-3.009-0.548-3.009-1.187c0-0.528,0.235-1.233,2.258-1.233 c1.807,0,2.473,0.389,2.747,1.607c0.024,0.115,0.129,0.199,0.247,0.199h1.141c0.071,0,0.138-0.031,0.186-0.081 c0.048-0.054,0.074-0.123,0.067-0.196c-0.177-2.098-1.571-3.076-4.388-3.076c-2.508,0-4.004,1.058-4.004,2.833 c0,1.925,1.488,2.457,3.895,2.695c2.88,0.282,3.103,0.703,3.103,1.269c0,0.983-0.789,1.402-2.642,1.402 c-2.327,0-2.839-0.584-3.011-1.742c-0.02-0.124-0.126-0.215-0.253-0.215h-1.137c-0.141,0-0.254,0.112-0.254,0.253 c0,1.482,0.806,3.248,4.655,3.248C17.501,17.007,19.099,15.91,19.099,13.993z"/></g>
      <g transform="translate(957, 43) scale(1.25)"><title>Stripe</title><path fill="currentColor" d="M13.976 9.15c-2.172-.806-3.356-1.426-3.356-2.409 0-.831.683-1.305 1.901-1.305 2.227 0 4.515.858 6.09 1.631l.89-5.494C18.252.975 15.697 0 12.165 0 9.667 0 7.589.654 6.104 1.872 4.56 3.147 3.757 4.992 3.757 7.218c0 4.039 2.467 5.76 6.476 7.219 2.585.92 3.445 1.574 3.445 2.583 0 .98-.84 1.545-2.354 1.545-1.875 0-4.965-.921-6.99-2.109l-.9 5.555C5.175 22.99 8.385 24 11.714 24c2.641 0 4.843-.624 6.328-1.813 1.664-1.305 2.525-3.236 2.525-5.732 0-4.128-2.524-5.851-6.594-7.305h.003z"/></g>
      <g transform="translate(1029, 43) scale(1.25)"><title>AWS</title><path fill="currentColor" d="M6.763 10.036c0 .296.032.535.088.71.064.176.144.368.256.576.04.063.056.127.056.183 0 .08-.048.16-.152.24l-.503.335a.383.383 0 0 1-.208.072c-.08 0-.16-.04-.239-.112a2.47 2.47 0 0 1-.287-.375 6.18 6.18 0 0 1-.248-.471c-.622.734-1.405 1.101-2.347 1.101-.67 0-1.205-.191-1.596-.574-.391-.384-.59-.894-.59-1.533 0-.678.239-1.23.726-1.644.487-.415 1.133-.623 1.955-.623.272 0 .551.024.846.064.296.04.6.104.918.176v-.583c0-.607-.127-1.03-.375-1.277-.255-.248-.686-.367-1.3-.367-.28 0-.568.031-.863.103-.295.072-.583.16-.862.272a2.287 2.287 0 0 1-.28.104.488.488 0 0 1-.127.023c-.112 0-.168-.08-.168-.247v-.391c0-.128.016-.224.056-.28a.597.597 0 0 1 .224-.167c.279-.144.614-.264 1.005-.36a4.84 4.84 0 0 1 1.246-.151c.95 0 1.644.216 2.091.647.439.43.662 1.085.662 1.963v2.586zm-3.24 1.214c.263 0 .534-.048.822-.144.287-.096.543-.271.758-.51.128-.152.224-.32.272-.512.047-.191.08-.423.08-.694v-.335a6.66 6.66 0 0 0-.735-.136 6.02 6.02 0 0 0-.75-.048c-.535 0-.926.104-1.19.32-.263.215-.39.518-.39.917 0 .375.095.655.295.846.191.2.47.296.838.296zm6.41.862c-.144 0-.24-.024-.304-.08-.064-.048-.12-.16-.168-.311L7.586 5.55a1.398 1.398 0 0 1-.072-.32c0-.128.064-.2.191-.2h.783c.151 0 .255.025.31.08.065.048.113.16.16.312l1.342 5.284 1.245-5.284c.04-.16.088-.264.151-.312a.549.549 0 0 1 .32-.08h.638c.152 0 .256.025.32.08.063.048.12.16.151.312l1.261 5.348 1.381-5.348c.048-.16.104-.264.16-.312a.52.52 0 0 1 .311-.08h.743c.127 0 .2.065.2.2 0 .04-.009.08-.017.128a1.137 1.137 0 0 1-.056.2l-1.923 6.17c-.048.16-.104.263-.168.311a.51.51 0 0 1-.303.08h-.687c-.151 0-.255-.024-.32-.08-.063-.056-.119-.16-.15-.32l-1.238-5.148-1.23 5.14c-.04.16-.087.264-.15.32-.065.056-.177.08-.32.08zm10.256.215c-.415 0-.83-.048-1.229-.143-.399-.096-.71-.2-.918-.32-.128-.071-.215-.151-.247-.223a.563.563 0 0 1-.048-.224v-.407c0-.167.064-.247.183-.247.048 0 .096.008.144.024.048.016.12.048.2.08.271.12.566.215.878.279.319.064.63.096.95.096.502 0 .894-.088 1.165-.264a.86.86 0 0 0 .415-.758.777.777 0 0 0-.215-.559c-.144-.151-.416-.287-.807-.415l-1.157-.36c-.583-.183-1.014-.454-1.277-.813a1.902 1.902 0 0 1-.4-1.158c0-.335.073-.63.216-.886.144-.255.335-.479.575-.654.24-.184.51-.32.83-.415.32-.096.655-.136 1.006-.136.175 0 .359.008.535.032.183.024.35.056.518.088.16.04.312.08.455.127.144.048.256.096.336.144a.69.69 0 0 1 .24.2.43.43 0 0 1 .071.263v.375c0 .168-.064.256-.184.256a.83.83 0 0 1-.303-.096 3.652 3.652 0 0 0-1.532-.311c-.455 0-.815.071-1.062.223-.248.152-.375.383-.375.71 0 .224.08.416.24.567.159.152.454.304.877.44l1.134.358c.574.184.99.44 1.237.767.247.327.367.702.367 1.117 0 .343-.072.655-.207.926-.144.272-.336.511-.583.703-.248.2-.543.343-.886.447-.36.111-.734.167-1.142.167zM21.698 16.207c-2.626 1.94-6.442 2.969-9.722 2.969-4.598 0-8.74-1.7-11.87-4.526-.247-.223-.024-.527.272-.351 3.384 1.963 7.559 3.153 11.877 3.153 2.914 0 6.114-.607 9.06-1.852.439-.2.814.287.383.607zM22.792 14.961c-.336-.43-2.22-.207-3.074-.103-.255.032-.295-.192-.063-.36 1.5-1.053 3.967-.75 4.254-.399.287.36-.08 2.826-1.485 4.007-.215.184-.423.088-.327-.151.32-.79 1.03-2.57.695-2.994z"/></g>
      <g transform="translate(1101, 43) scale(1.25)"><title>Claude (Anthropic)</title><path fill="currentColor" d="M17.3041 3.541h-3.6718l6.696 16.918H24Zm-10.6082 0L0 20.459h3.7442l1.3693-3.5527h7.0052l1.3693 3.5528h3.7442L10.5363 3.5409Zm-.3712 10.2232 2.2914-5.9456 2.2914 5.9456Z"/></g>
      <g transform="translate(1173, 43) scale(1.25)"><title>Ollama</title><path fill="currentColor" d="M16.361 10.26a.894.894 0 0 0-.558.47l-.072.148.001.207c0 .193.004.217.059.353.076.193.152.312.291.448.24.238.51.3.872.205a.86.86 0 0 0 .517-.436.752.752 0 0 0 .08-.498c-.064-.453-.33-.782-.724-.897a1.06 1.06 0 0 0-.466 0zm-9.203.005c-.305.096-.533.32-.65.639a1.187 1.187 0 0 0-.06.52c.057.309.31.59.598.667.362.095.632.033.872-.205.14-.136.215-.255.291-.448.055-.136.059-.16.059-.353l.001-.207-.072-.148a.894.894 0 0 0-.565-.472 1.02 1.02 0 0 0-.474.007Zm4.184 2c-.131.071-.223.25-.195.383.031.143.157.288.353.407.105.063.112.072.117.136.004.038-.01.146-.029.243-.02.094-.036.194-.036.222.002.074.07.195.143.253.064.052.076.054.255.059.164.005.198.001.264-.03.169-.082.212-.234.15-.525-.052-.243-.042-.28.087-.355.137-.08.281-.219.324-.314a.365.365 0 0 0-.175-.48.394.394 0 0 0-.181-.033c-.126 0-.207.03-.355.124l-.085.053-.053-.032c-.219-.13-.259-.145-.391-.143a.396.396 0 0 0-.193.032zm.39-2.195c-.373.036-.475.05-.654.086-.291.06-.68.195-.951.328-.94.46-1.589 1.226-1.787 2.114-.04.176-.045.234-.045.53 0 .294.005.357.043.524.264 1.16 1.332 2.017 2.714 2.173.3.033 1.596.033 1.896 0 1.11-.125 2.064-.727 2.493-1.571.114-.226.169-.372.22-.602.039-.167.044-.23.044-.523 0-.297-.005-.355-.045-.531-.288-1.29-1.539-2.304-3.072-2.497a6.873 6.873 0 0 0-.855-.031zm.645.937a3.283 3.283 0 0 1 1.44.514c.223.148.537.458.671.662.166.251.26.508.303.82.02.143.01.251-.043.482-.08.345-.332.705-.672.957a3.115 3.115 0 0 1-.689.348c-.382.122-.632.144-1.525.138-.582-.006-.686-.01-.853-.042-.57-.107-1.022-.334-1.35-.68-.264-.28-.385-.535-.45-.946-.03-.192.025-.509.137-.776.136-.326.488-.73.836-.963.403-.269.934-.46 1.422-.512.187-.02.586-.02.773-.002zm-5.503-11a1.653 1.653 0 0 0-.683.298C5.617.74 5.173 1.666 4.985 2.819c-.07.436-.119 1.04-.119 1.503 0 .544.064 1.24.155 1.721.02.107.031.202.023.208a8.12 8.12 0 0 1-.187.152 5.324 5.324 0 0 0-.949 1.02 5.49 5.49 0 0 0-.94 2.339 6.625 6.625 0 0 0-.023 1.357c.091.78.325 1.438.727 2.04l.13.195-.037.064c-.269.452-.498 1.105-.605 1.732-.084.496-.095.629-.095 1.294 0 .67.009.803.088 1.266.095.555.288 1.143.503 1.534.071.128.243.393.264.407.007.003-.014.067-.046.141a7.405 7.405 0 0 0-.548 1.873c-.062.417-.071.552-.071.991 0 .56.031.832.148 1.279L3.42 24h1.478l-.05-.091c-.297-.552-.325-1.575-.068-2.597.117-.472.25-.819.498-1.296l.148-.29v-.177c0-.165-.003-.184-.057-.293a.915.915 0 0 0-.194-.25 1.74 1.74 0 0 1-.385-.543c-.424-.92-.506-2.286-.208-3.451.124-.486.329-.918.544-1.154a.787.787 0 0 0 .223-.531c0-.195-.07-.355-.224-.522a3.136 3.136 0 0 1-.817-1.729c-.14-.96.114-2.005.69-2.834.563-.814 1.353-1.336 2.237-1.475.199-.033.57-.028.776.01.226.04.367.028.512-.041.179-.085.268-.19.374-.431.093-.215.165-.333.36-.576.234-.29.46-.489.822-.729.413-.27.884-.467 1.352-.561.17-.035.25-.04.569-.04.319 0 .398.005.569.04a4.07 4.07 0 0 1 1.914.997c.117.109.398.457.488.602.034.057.095.177.132.267.105.241.195.346.374.43.14.068.286.082.503.045.343-.058.607-.053.943.016 1.144.23 2.14 1.173 2.581 2.437.385 1.108.276 2.267-.296 3.153-.097.15-.193.27-.333.419-.301.322-.301.722-.001 1.053.493.539.801 1.866.708 3.036-.062.772-.26 1.463-.533 1.854a2.096 2.096 0 0 1-.224.258.916.916 0 0 0-.194.25c-.054.109-.057.128-.057.293v.178l.148.29c.248.476.38.823.498 1.295.253 1.008.231 2.01-.059 2.581a.845.845 0 0 0-.044.098c0 .006.329.009.732.009h.73l.02-.074.036-.134c.019-.076.057-.3.088-.516.029-.217.029-1.016 0-1.258-.11-.875-.295-1.57-.597-2.226-.032-.074-.053-.138-.046-.141.008-.005.057-.074.108-.152.376-.569.607-1.284.724-2.228.031-.26.031-1.378 0-1.628-.083-.645-.182-1.082-.348-1.525a6.083 6.083 0 0 0-.329-.7l-.038-.064.131-.194c.402-.604.636-1.262.727-2.04a6.625 6.625 0 0 0-.024-1.358 5.512 5.512 0 0 0-.939-2.339 5.325 5.325 0 0 0-.95-1.02 8.097 8.097 0 0 1-.186-.152.692.692 0 0 1 .023-.208c.208-1.087.201-2.443-.017-3.503-.19-.924-.535-1.658-.98-2.082-.354-.338-.716-.482-1.15-.455-.996.059-1.8 1.205-2.116 3.01a6.805 6.805 0 0 0-.097.726c0 .036-.007.066-.015.066a.96.96 0 0 1-.149-.078A4.857 4.857 0 0 0 12 3.03c-.832 0-1.687.243-2.456.698a.958.958 0 0 1-.148.078c-.008 0-.015-.03-.015-.066a6.71 6.71 0 0 0-.097-.725C8.997 1.392 8.337.319 7.46.048a2.096 2.096 0 0 0-.585-.041Zm.293 1.402c.248.197.523.759.682 1.388.03.113.06.244.069.292.007.047.026.152.041.233.067.365.098.76.102 1.24l.002.475-.12.175-.118.178h-.278c-.324 0-.646.041-.954.124l-.238.06c-.033.007-.038-.003-.057-.144a8.438 8.438 0 0 1 .016-2.323c.124-.788.413-1.501.696-1.711.067-.05.079-.049.157.013zm9.825-.012c.17.126.358.46.498.888.28.854.36 2.028.212 3.145-.019.14-.024.151-.057.144l-.238-.06a3.693 3.693 0 0 0-.954-.124h-.278l-.119-.178-.119-.175.002-.474c.004-.669.066-1.19.214-1.772.157-.623.434-1.185.68-1.382.078-.062.09-.063.159-.012z"/></g>
      <g transform="translate(1245, 43) scale(1.25)"><title>Deepgram</title><path fill="currentColor" d="M11.203 24H1.517a.364.364 0 0 1-.258-.62l6.239-6.275a.366.366 0 0 1 .259-.108h3.52c2.723 0 5.025-2.127 5.107-4.845a5.004 5.004 0 0 0-4.999-5.148H7.613v4.646c0 .2-.164.364-.365.364H.968a.365.365 0 0 1-.363-.364V.364C.605.164.768 0 .969 0h10.416c6.684 0 12.111 5.485 12.01 12.187C23.293 18.77 17.794 24 11.202 24z"/></g>
      <g transform="translate(1317, 43) scale(1.25)"><title>Vitest</title><path fill="currentColor" d="M11.545 23.3a.613.613 0 0 1-.895.197L.252 15.936A.61.61 0 0 1 0 15.439V6.325c0-.502.569-.792.975-.497l6.358 4.624c.594.433 1.432.25 1.793-.39L14.393.7a.62.62 0 0 1 .535-.314h8.455a.613.613 0 0 1 .537.916z"/></g>
      <g transform="translate(1389, 43) scale(1.25)"><title>Playwright</title><path fill="currentColor" d="M23.996 7.462c-.056.837-.257 2.135-.716 3.85-.995 3.715-4.27 10.874-10.42 9.227-6.15-1.65-5.407-9.487-4.412-13.201.46-1.716.934-2.94 1.305-3.694.42-.853.846-.289 1.815.523.684.573 2.41 1.791 5.011 2.488 2.601.697 4.706.506 5.583.352 1.245-.219 1.897-.494 1.834.455Zm-9.807 3.863s-.127-1.819-1.773-2.286c-1.644-.467-2.613 1.04-2.613 1.04Zm4.058 4.539-7.769-2.172s.446 2.306 3.338 3.153c2.862.836 4.43-.98 4.43-.981Zm2.701-2.51s-.13-1.818-1.773-2.286c-1.644-.469-2.612 1.038-2.612 1.038ZM8.57 18.23c-4.749 1.279-7.261-4.224-8.021-7.08C.197 9.831.044 8.832.003 8.188c-.047-.73.455-.52 1.415-.354.677.118 2.3.261 4.308-.28a11.28 11.28 0 0 0 2.41-.956c-.058.197-.114.4-.17.61-.433 1.618-.827 4.055-.632 6.426-1.976.732-2.267 2.423-2.267 2.423l2.524-.715c.227 1.002.6 1.987 1.15 2.838a5.914 5.914 0 0 1-.171.049Zm-4.188-6.298c1.265-.333 1.363-1.631 1.363-1.631l-3.374.888s.745 1.076 2.01.743Z"/></g>
      <g transform="translate(1461, 43) scale(1.25)"><title>Git</title><path fill="currentColor" d="M13.09 23.549a1.54 1.54 0 0 1-2.18 0L.451 13.089a1.54 1.54 0 0 1 0-2.179l7.191-7.19 2.733 2.733a1.85 1.85 0 0 0 .964 2.326v6.66a1.849 1.849 0 1 0 1.54 0V8.957l2.508 2.508a1.85 1.85 0 1 0 1.09-1.09l-2.634-2.634a1.85 1.85 0 0 0-2.378-2.377L8.73 2.63 10.91.451a1.54 1.54 0 0 1 2.179 0l10.459 10.46a1.54 1.54 0 0 1 0 2.179z"/></g>
      <g transform="translate(1533, 43) scale(1.25)"><title>GitHub Actions</title><path fill="currentColor" d="M10.984 13.836a.5.5 0 0 1-.353-.146l-.745-.743a.5.5 0 1 1 .706-.708l.392.391 1.181-1.18a.5.5 0 0 1 .708.707l-1.535 1.533a.504.504 0 0 1-.354.146zm9.353-.147l1.534-1.532a.5.5 0 0 0-.707-.707l-1.181 1.18-.392-.391a.5.5 0 1 0-.706.708l.746.743a.497.497 0 0 0 .706-.001zM4.527 7.452l2.557-1.585A1 1 0 0 0 7.09 4.17L4.533 2.56A1 1 0 0 0 3 3.406v3.196a1.001 1.001 0 0 0 1.527.85zm2.03-2.436L4 6.602V3.406l2.557 1.61zM24 12.5c0 1.93-1.57 3.5-3.5 3.5a3.503 3.503 0 0 1-3.46-3h-2.08a3.503 3.503 0 0 1-3.46 3 3.502 3.502 0 0 1-3.46-3h-.558c-.972 0-1.85-.399-2.482-1.042V17c0 1.654 1.346 3 3 3h.04c.244-1.693 1.7-3 3.46-3 1.93 0 3.5 1.57 3.5 3.5S13.43 24 11.5 24a3.502 3.502 0 0 1-3.46-3H8c-2.206 0-4-1.794-4-4V9.899A5.008 5.008 0 0 1 0 5c0-2.757 2.243-5 5-5s5 2.243 5 5a5.005 5.005 0 0 1-4.952 4.998A2.482 2.482 0 0 0 7.482 12h.558c.244-1.693 1.7-3 3.46-3a3.502 3.502 0 0 1 3.46 3h2.08a3.503 3.503 0 0 1 3.46-3c1.93 0 3.5 1.57 3.5 3.5zm-15 8c0 1.378 1.122 2.5 2.5 2.5s2.5-1.122 2.5-2.5-1.122-2.5-2.5-2.5S9 19.122 9 20.5zM5 9c2.206 0 4-1.794 4-4S7.206 1 5 1 1 2.794 1 5s1.794 4 4 4zm9 3.5c0-1.378-1.122-2.5-2.5-2.5S9 11.122 9 12.5s1.122 2.5 2.5 2.5 2.5-1.122 2.5-2.5zm9 0c0-1.378-1.122-2.5-2.5-2.5S18 11.122 18 12.5s1.122 2.5 2.5 2.5 2.5-1.122 2.5-2.5zm-13 8a.5.5 0 1 0 1 0 .5.5 0 0 0-1 0zm2 0a.5.5 0 1 0 1 0 .5.5 0 0 0-1 0zm12 0c0 1.93-1.57 3.5-3.5 3.5a3.503 3.503 0 0 1-3.46-3.002c-.007.001-.013.005-.021.005l-.506.017h-.017a.5.5 0 0 1-.016-.999l.506-.017c.018-.002.035.006.052.007A3.503 3.503 0 0 1 20.5 17c1.93 0 3.5 1.57 3.5 3.5zm-1 0c0-1.378-1.122-2.5-2.5-2.5S18 19.122 18 20.5s1.122 2.5 2.5 2.5 2.5-1.122 2.5-2.5z"/></g>
      <g transform="translate(1605, 43) scale(1.25)"><title>Jira</title><path fill="currentColor" d="M11.571 11.513H0a5.218 5.218 0 0 0 5.232 5.215h2.13v2.057A5.215 5.215 0 0 0 12.575 24V12.518a1.005 1.005 0 0 0-1.005-1.005zm5.723-5.756H5.736a5.215 5.215 0 0 0 5.215 5.214h2.129v2.058a5.218 5.218 0 0 0 5.215 5.214V6.758a1.001 1.001 0 0 0-1.001-1.001zM23.013 0H11.455a5.215 5.215 0 0 0 5.215 5.215h2.129v2.057A5.215 5.215 0 0 0 24 12.483V1.005A1.001 1.001 0 0 0 23.013 0Z"/></g>
    </g>
  </defs>
  <rect class="panel" x="0.5" y="0.5" width="879" height="115" rx="20"/>
  <g clip-path="url(#clip)"><g class="aurora" filter="url(#soft)">
    <g class="b1"><circle cx="170" cy="60" r="92" fill="url(#aGreen)"/></g>
    <g class="b2"><circle cx="450" cy="30" r="120" fill="url(#aBlue)"/></g>
    <g class="b3"><circle cx="690" cy="86" r="104" fill="url(#aViolet)"/></g>
    <g class="b4"><circle cx="320" cy="96" r="86" fill="url(#aCoral)"/></g>
  </g></g>
  <rect class="frost" x="0.5" y="0.5" width="879" height="115" rx="20" clip-path="url(#clip)"/>
  <rect x="0.5" y="0.5" width="879" height="115" rx="20" fill="url(#gloss)" clip-path="url(#clip)"/>
  <g clip-path="url(#clip)" mask="url(#edge)"><g class="track" style="color:var(--ic)"><use href="#strip" xlink:href="#strip"/><use href="#strip" xlink:href="#strip" x="1656"/></g></g>
  <g clip-path="url(#clip)"><rect class="sweep" x="0" y="0" width="300" height="116" fill="url(#glowG)"/></g>
  <g clip-path="url(#clip)" mask="url(#edge)"><g mask="url(#band)"><g class="track" style="color:var(--accent)" filter="url(#glow)"><use href="#strip" xlink:href="#strip"/><use href="#strip" xlink:href="#strip" x="1656"/></g></g></g>
</svg>
